<?xml version="1.0" encoding="UTF-8" standalone="no"?>
<!DOCTYPE svg PUBLIC "-//W3C//DTD SVG 1.1//EN" "http://www.w3.org/Graphics/SVG/1.1/DTD/svg11.dtd">
<svg width="100%" height="100%" viewBox="0 0 5000 5000" version="1.1" xmlns="http://www.w3.org/2000/svg" xmlns:xlink="http://www.w3.org/1999/xlink" xml:space="preserve" xmlns:serif="http://www.serif.com/" style="fillRule:evenodd;clip-rule:evenodd;stroke-linejoin:round;stroke-miterlimit:2;">
    <g id="Tree" transform="matrix(0.209075,0,0,0.209075,-1173.33,-898.249)">
        <g transform="matrix(24413.2,38985.4,38985.4,-24413.2,5311.41,-5996.17)">
            <path d="M0.499,0.17C0.514,0.1 0.53,0.029 0.545,-0.041L0.742,-0.166L0.753,-0.148L0.564,-0.028L0.513,0.2C0.51,0.196 0.507,0.192 0.503,0.188C0.503,0.187 0.502,0.186 0.502,0.185C0.499,0.181 0.498,0.176 0.499,0.17Z" style="fill:rgb(171,135,84);fillRule:nonzero;"/>
        </g>
        <g transform="matrix(24413.2,38985.4,38985.4,-24413.2,-1078.28,-1994.86)">
            <path d="M0.374,-0.004C0.373,-0.009 0.371,-0.015 0.369,-0.02L0.454,-0.001C0.448,-0.009 0.443,-0.017 0.438,-0.026C0.434,-0.032 0.433,-0.04 0.436,-0.046L0.442,-0.059L0.483,0.006C0.534,0.019 0.585,0.032 0.636,0.045L0.614,0.059C0.538,0.041 0.461,0.024 0.385,0.006C0.381,0.005 0.378,0.003 0.376,-0C0.375,-0.001 0.375,-0.002 0.374,-0.004Z" style="fill:rgb(171,135,84);fillRule:nonzero;"/>
        </g>
        <g transform="matrix(24413.2,38985.4,38985.4,-24413.2,4077.32,-5223.37)">
            <path d="M0.318,-0.017C0.316,-0.023 0.314,-0.029 0.312,-0.034L0.516,0.014L0.512,0.034C0.451,0.02 0.39,0.006 0.328,-0.008C0.325,-0.009 0.322,-0.011 0.319,-0.014C0.319,-0.015 0.318,-0.016 0.318,-0.017Z" style="fill:rgb(171,135,84);fillRule:nonzero;"/>
        </g>
        <g transform="matrix(24413.2,38985.4,38985.4,-24413.2,9085.95,-8359.84)">
            <path d="M0.374,0.017C0.379,-0.004 0.383,-0.025 0.387,-0.046L0.494,-0.023L0.489,-0.002L0.403,-0.021L0.388,0.046C0.385,0.043 0.382,0.04 0.38,0.037C0.379,0.036 0.378,0.035 0.377,0.034C0.374,0.029 0.373,0.023 0.374,0.017Z" style="fill:rgb(171,135,84);fillRule:nonzero;"/>
        </g>
        <g transform="matrix(24413.2,38985.4,38985.4,-24413.2,7823.8,-7569.47)">
            <path d="M0.561,0.067C0.56,0.061 0.563,0.055 0.569,0.052L0.608,0.029C0.619,-0.022 0.631,-0.074 0.642,-0.125L0.665,-0.139C0.658,-0.104 0.651,-0.069 0.644,-0.034L0.681,-0.025C0.698,-0.02 0.702,0.001 0.702,0.001L0.639,-0.014C0.628,0.037 0.616,0.088 0.604,0.139C0.601,0.135 0.597,0.13 0.594,0.126C0.59,0.122 0.589,0.116 0.59,0.11L0.602,0.057C0.588,0.065 0.575,0.073 0.561,0.081C0.561,0.076 0.561,0.071 0.561,0.067Z" style="fill:rgb(171,135,84);fillRule:nonzero;"/>
        </g>
        <g transform="matrix(-30711.4,34244.3,34244.3,30711.4,35454,-7608.66)">
            <path d="M0.44,-0.019C0.464,-0.019 0.48,-0.004 0.484,-0.001C0.48,0.003 0.464,0.018 0.44,0.019C0.435,0.019 0.414,0.019 0.395,0.001C0.399,-0.003 0.415,-0.018 0.44,-0.019Z" style="fill:rgb(171,135,84);fillRule:nonzero;"/>
        </g>
        <g transform="matrix(-3346.06,45876.7,45876.7,3346.06,12901.7,-6716.61)">
            <path d="M0.425,-0.019C0.449,-0.018 0.465,-0.003 0.469,0.001C0.465,0.004 0.449,0.019 0.425,0.019C0.4,0.018 0.384,0.003 0.38,-0.001C0.399,-0.019 0.42,-0.019 0.425,-0.019Z" style="fill:rgb(171,135,84);fillRule:nonzero;"/>
        </g>
        <g transform="matrix(30711,34244.7,34244.7,-30711,3655.14,-4687.95)">
            <path d="M0.342,-0.019C0.366,-0.019 0.382,-0.003 0.386,0C0.382,0.004 0.366,0.019 0.342,0.018C0.317,0.018 0.301,0.003 0.297,-0.001C0.316,-0.019 0.337,-0.019 0.342,-0.019Z" style="fill:rgb(171,135,84);fillRule:nonzero;"/>
        </g>
        <g transform="matrix(1.78696e-10,45998.5,45998.5,-1.78696e-10,14473.4,-8454.51)">
            <circle cx="0.506" cy="-0" r="0.023" style="fill:rgb(171,135,84);"/>
        </g>
        <g transform="matrix(-6.8729e-12,45998.5,45998.5,6.8729e-12,17716.5,-9421.93)">
            <circle cx="0.45" cy="0" r="0.023" style="fill:rgb(171,135,84);"/>
        </g>
        <g transform="matrix(2.06187e-10,45998.5,45998.5,-2.06187e-10,19851.5,-10247.9)">
            <circle cx="0.591" cy="0" r="0.023" style="fill:rgb(171,135,84);"/>
        </g>
    </g>
</svg>
